<?xml version="1.0" encoding="UTF-8"?>
<svg id="katman_2" data-name="katman 2" xmlns="http://www.w3.org/2000/svg" viewBox="0 0 38.92 25">
  <defs>
    <style>
      .cls-1 {
        fill: #361268;
        stroke-width: 0px;
      }
    </style>
  </defs>
  <g id="katman_1" data-name="katman 1">
    <g>
      <path class="cls-1" d="m14.73,12.05c-3.25-3.17-2.64-7.81.02-10.23,2.71-2.46,6.88-2.42,9.5.08,2.66,2.53,3.09,7.06-.04,10.12.11.14.29.16.44.24,4.62,2.3,7.07,6.02,7.31,11.17.05,1-.54,1.57-1.53,1.57-7.31,0-14.62,0-21.93,0-1,0-1.59-.57-1.55-1.56.25-5.24,2.76-8.99,7.5-11.26.08-.04.16-.07.27-.12Zm4.73,10.18c3,0,5.99,0,8.99,0q.68,0,.53-.66c-1.12-4.99-5.62-8.17-10.72-7.6-4.11.47-7.6,3.71-8.34,7.76q-.09.5.43.5c3.04,0,6.08,0,9.12,0Zm0-19.43c-2.32,0-4.18,1.88-4.17,4.2,0,2.26,1.89,4.13,4.17,4.12,2.31,0,4.17-1.86,4.17-4.16,0-2.29-1.87-4.17-4.17-4.17Z"/>
      <path class="cls-1" d="m33.35,10.66c1.41.7,2.61,1.63,3.56,2.87,1.3,1.71,1.97,3.64,2.01,5.79.02.93-.56,1.51-1.51,1.52-.85,0-1.71,0-2.56,0-.87,0-1.5-.6-1.49-1.41.01-.79.63-1.36,1.49-1.37.22,0,.43,0,.65,0,.51,0,.53,0,.38-.48-.8-2.6-2.53-4.25-5.18-4.9-.42-.1-.83-.22-1.26-.29-.6-.09-1.02-.67-1.04-1.28-.02-.64.38-1.2.98-1.37.18-.05.37-.07.55-.12,1.23-.33,2.07-1.47,2.03-2.75-.03-1.27-.95-2.35-2.2-2.61-.1-.02-.2-.04-.3-.06-.74-.17-1.22-.82-1.13-1.51.1-.76.74-1.29,1.53-1.2,1.63.18,2.92.97,3.87,2.3,1.4,1.97,1.34,4.59-.12,6.51-.09.11-.17.23-.27.36Z"/>
      <path class="cls-1" d="m5.57,10.64c-.75-.87-1.19-1.85-1.36-2.97-.44-2.87,1.74-5.8,4.62-6.18.92-.12,1.6.33,1.74,1.15.12.75-.39,1.4-1.26,1.58-1.43.3-2.35,1.35-2.36,2.69-.01,1.37.88,2.42,2.34,2.76.78.18,1.22.66,1.23,1.35,0,.65-.42,1.26-1.05,1.36-.43.07-.84.19-1.26.29-2.68.67-4.42,2.34-5.2,4.99-.09.3-.05.42.29.39.3-.02.61-.01.91,0,.76.03,1.34.63,1.35,1.37,0,.74-.57,1.37-1.32,1.39-.97.02-1.94.02-2.91,0-.78-.02-1.35-.65-1.32-1.48.14-3.79,1.87-6.62,5.17-8.49.12-.07.25-.13.4-.22Z"/>
    </g>
  </g>
</svg>