<?xml version="1.0" encoding="UTF-8"?>
<svg id="katman_2" data-name="katman 2" xmlns="http://www.w3.org/2000/svg" xmlns:xlink="http://www.w3.org/1999/xlink" viewBox="0 0 318.94 85">
  <defs>
    <style>
      .cls-1 {
        fill: #361268;
      }

      .cls-1, .cls-2, .cls-3 {
        stroke-width: 0px;
      }

      .cls-2 {
        fill: #624688;
      }

      .cls-3 {
        fill: url(#Adsız_degrade_7);
      }
    </style>
    <linearGradient id="Adsız_degrade_7" data-name="Adsız degrade 7" x1="8.36" y1="76.64" x2="84.53" y2=".47" gradientUnits="userSpaceOnUse">
      <stop offset="0" stop-color="#091159"/>
      <stop offset="1" stop-color="#624688"/>
    </linearGradient>
  </defs>
  <g id="katman_1" data-name="katman 1">
    <g>
      <g>
        <g>
          <path class="cls-2" d="m220.18,44.08c9.08-8.24,14.35-13.08,15.83-14.5,1.47-1.42,2.21-3.05,2.21-4.9s-.64-3.37-1.91-4.6c-1.28-1.23-2.77-1.84-4.49-1.84h-23.92c-1.72,0-2.99.12-3.83.37-.64.25-1.13.58-1.47.99-.34.42-.64,1.06-.88,1.91-.25.86-.37,2.17-.37,3.94s.42,3.19,1.25,4.27c.74.93,2.5,1.4,5.3,1.4h10.38c-.2.2-1.37,1.24-3.53,3.13s-4.56,4.01-7.21,6.37c-2.65,2.36-4.61,4.16-5.89,5.41s-1.91,2.76-1.91,4.53.64,3.29,1.91,4.56c1.28,1.28,2.77,1.91,4.49,1.91h26.57c1.13,0,1.98-.04,2.54-.11s1.21-.29,1.95-.66c.74-.37,1.25-1.02,1.55-1.95.29-.93.44-2.16.44-3.68s-.15-2.75-.44-3.68c-.29-.93-.87-1.64-1.73-2.13-.86-.49-2.27-.74-4.23-.74h-12.59Z"/>
          <path class="cls-2" d="m258.31,57.53c9.08-8.24,14.35-13.08,15.83-14.5,1.47-1.42,2.21-3.05,2.21-4.9s-.64-3.37-1.91-4.6-2.77-1.84-4.49-1.84h-23.92c-1.72,0-2.99.12-3.83.37-.64.25-1.13.58-1.47.99s-.64,1.06-.88,1.91-.37,2.17-.37,3.94.42,3.19,1.25,4.27c.74.93,2.5,1.4,5.3,1.4h10.38c-.2.2-1.37,1.24-3.53,3.13s-4.56,4.01-7.21,6.37c-2.65,2.36-4.61,4.16-5.89,5.41s-1.91,2.76-1.91,4.53.64,3.29,1.91,4.56c1.28,1.28,2.77,1.91,4.49,1.91h26.57c1.13,0,1.98-.04,2.54-.11s1.21-.29,1.95-.66c.74-.37,1.25-1.02,1.55-1.95.29-.93.44-2.16.44-3.68s-.15-2.75-.44-3.68c-.29-.93-.87-1.64-1.73-2.13-.86-.49-2.27-.74-4.23-.74h-12.59Z"/>
        </g>
        <g>
          <path class="cls-1" d="m125.54,25.83c-1.86-2.55-4.8-3.83-8.8-3.83s-7.79,1.89-11.37,5.67-5.37,8.17-5.37,13.18,1.77,9.4,5.3,13.18c3.53,3.78,7.48,5.67,11.85,5.67,3.58,0,6.36-1.13,8.32-3.39v14.87c0,1.13.04,1.96.11,2.5s.29,1.17.66,1.88c.37.71.99,1.21,1.88,1.51.88.29,2.09.44,3.61.44s2.74-.15,3.64-.44c.91-.29,1.55-.79,1.91-1.47.37-.69.59-1.3.66-1.84.07-.54.11-1.37.11-2.5V28.25c0-1.13-.04-1.96-.11-2.5s-.29-1.17-.66-1.88c-.37-.71-.99-1.21-1.88-1.51-.88-.29-2.26-.44-4.12-.44-3.53,0-5.45,1.3-5.74,3.9Zm-6.55,21.35c-1.77,0-3.28-.64-4.53-1.91-1.25-1.28-1.88-2.72-1.88-4.34s.59-3.08,1.77-4.38c1.18-1.3,2.71-1.95,4.6-1.95s3.4.67,4.53,2.02,1.69,2.8,1.69,4.34-.59,2.97-1.77,4.27c-1.18,1.3-2.65,1.95-4.42,1.95Z"/>
          <path class="cls-1" d="m158.88,56.15c1.96,0,3.78-.54,5.45-1.62.64-.44,1.3-.98,1.99-1.62.69-.64,1.13-1.13,1.32-1.47,0,1.18.25,2.18.74,3.02.69,1.18,2.53,1.77,5.52,1.77s4.93-.64,5.67-1.91c.39-.69.63-1.31.7-1.88.07-.56.11-1.39.11-2.47v-26.06c0-1.13-.04-1.98-.11-2.54-.07-.56-.28-1.21-.63-1.95-.69-1.32-2.58-1.99-5.67-1.99s-5.03.64-5.67,1.91c-.39.74-.63,1.39-.7,1.95-.07.56-.11,1.41-.11,2.54v13.03c0,1.91-.6,3.46-1.8,4.64-1.2,1.18-2.77,1.77-4.71,1.77s-3.48-.56-4.64-1.69c-1.15-1.13-1.73-2.7-1.73-4.71v-12.88c0-1.72-.15-2.97-.44-3.75-.59-1.86-2.6-2.8-6.04-2.8-3.14,0-5.05.66-5.74,1.99-.34.74-.55,1.37-.63,1.91s-.11,1.4-.11,2.58v12.88c0,5.4,1.63,9.97,4.9,13.73,3.26,3.75,7.37,5.63,12.33,5.63Z"/>
          <path class="cls-1" d="m184.34,32.09v25.84c0,1.18.04,2.04.11,2.58s.28,1.18.63,1.91c.69,1.32,2.58,1.99,5.67,1.99s5.03-.64,5.67-1.91c.39-.74.63-1.39.7-1.95.07-.56.11-1.41.11-2.54v-25.76c0-.93-.02-1.64-.07-2.13-.05-1.42-.49-2.48-1.32-3.17-.98-.83-2.65-1.25-5.01-1.25-3.14,0-5.05.64-5.74,1.91-.34.74-.55,1.39-.63,1.95-.07.56-.11,1.41-.11,2.54Zm10.16-12.15c.93-.29,1.58-.8,1.95-1.51s.59-1.35.66-1.91c.07-.56.11-1.41.11-2.54s-.04-1.98-.11-2.54c-.07-.56-.31-1.21-.7-1.95-.64-1.32-2.5-1.99-5.59-1.99s-5.05.66-5.74,1.99c-.34.69-.55,1.31-.63,1.88-.07.56-.11,1.41-.11,2.54s.04,1.98.11,2.54c.07.56.29,1.21.66,1.95s1.02,1.25,1.95,1.55c.93.29,2.17.44,3.72.44s2.78-.15,3.72-.44Z"/>
          <path class="cls-1" d="m284.64,28.32c-4.12,3.83-6.18,8.69-6.18,14.57,0,3.93,1.04,7.45,3.13,10.56,2.09,3.12,4.65,5.47,7.69,7.07,3.04,1.59,6.18,2.39,9.42,2.39s6.37-.75,9.39-2.25c3.02-1.5,5.58-3.83,7.69-6.99,2.11-3.17,3.17-6.78,3.17-10.86,0-5.89-2.04-10.73-6.11-14.54-4.07-3.8-8.76-5.7-14.06-5.7s-10.01,1.91-14.13,5.74Zm13.99,21.64c-1.62,0-3.21-.6-4.78-1.8-1.57-1.2-2.36-2.99-2.36-5.37s.76-4.18,2.28-5.41c1.52-1.23,3.17-1.84,4.93-1.84s3.41.59,4.93,1.77c1.52,1.18,2.28,2.97,2.28,5.37s-.81,4.22-2.43,5.45c-1.62,1.23-3.24,1.84-4.86,1.84Z"/>
        </g>
      </g>
      <path class="cls-3" d="m42.5,0C19.03,0,0,19.03,0,42.5s19.03,42.5,42.5,42.5,42.5-19.03,42.5-42.5S65.97,0,42.5,0Zm-23.69,52.29c-.21-.14-.44-.27-.67-.38-.5-.24-.99-.2-1.47.05-.31.16-.6.36-.9.54.09-.14.18-.27.27-.41.2-.31.38-.62.46-.99.08-.38-.02-.73-.18-1.07-.14-.29-.32-.55-.5-.81-.02-.03-.04-.05-.04-.09.3.19.58.4.9.55.36.17.72.27,1.12.17.25-.06.48-.18.7-.31.19-.11.38-.24.56-.36.03-.02.05-.04.09-.04-.19.3-.4.58-.55.9-.15.31-.25.64-.2.99.05.3.17.56.32.81.13.22.28.44.43.69-.13-.09-.24-.16-.35-.23Zm17.74,19.48c-.5.26-.99.53-1.43.88-.56.44-.88,1.02-.95,1.73-.07.65-.02,1.29.04,1.93,0,.05,0,.1.01.15,0,0-.01,0-.02,0-.11-.21-.22-.42-.33-.63-.26-.48-.53-.94-.91-1.35-.42-.46-.94-.69-1.55-.76-.64-.07-1.27-.02-1.91.04-.06,0-.12,0-.18,0,.17-.09.34-.18.52-.27.45-.24.89-.49,1.28-.81.54-.43.85-.99.93-1.69.07-.65.02-1.29-.04-1.93,0-.06,0-.12,0-.18.12.23.24.46.36.69.25.46.52.9.88,1.29.42.45.93.68,1.53.75.66.08,1.31.02,1.96-.04.05,0,.1,0,.15,0-.12.06-.24.12-.36.19Zm5.3-10.15c-.22.65-.7,1.16-1.45,1.54-.75.38-1.78.67-3.09.88-1.31.21-2.38.25-3.2.13-.83-.12-1.45-.47-1.86-1.04-.41-.57-.69-1.09-.82-1.56-.14-.47-.28-1.18-.44-2.13-.15-.95-.24-1.68-.25-2.16-.01-.49.08-1.04.28-1.67.4-1.21,1.93-2.03,4.59-2.46,2.62-.42,4.28-.11,5,.93.43.57.72,1.09.85,1.56.14.47.28,1.18.44,2.13s.24,1.68.25,2.16c.01.49-.09,1.06-.3,1.71Zm6.75-25.71c-.43,2.16-1.47,4.01-3.08,5.52-.9.84-1.83,1.66-2.78,2.46-1.49,1.27-2.36,2.82-2.45,4.81-.06,1.42-.39,1.72-1.8,1.94-1.12.18-2.24.36-3.36.54-1.17.19-2.34.38-3.52.56-.95.15-1.34-.02-1.71-.9-.88-2.1-.86-4.23,0-6.32.87-2.13,2.31-3.83,4.1-5.24.97-.77,1.98-1.49,2.85-2.38,1.79-1.85,1.28-4.48-1.08-5.52-2.64-1.17-5.88-.37-7.68,1.89-.8,1.02-1.41,2.16-2.08,3.26-.75,1.22-1.29,1.38-2.55.7-1.8-.96-3.59-1.92-5.39-2.9-1.1-.6-1.31-1.11-.85-2.27,2.13-5.4,6.05-8.87,11.57-10.54,4.76-1.44,9.27-.74,13.56,1.7,4.6,2.62,7.21,7.9,6.25,12.69Zm.37-26.04c-.46.53-.91,1.08-1.27,1.69-.49.83-.62,1.71-.38,2.65.22.88.61,1.69.99,2.5.04.07.07.15.08.24-.27-.24-.54-.48-.81-.71-.55-.47-1.12-.92-1.77-1.25-.76-.38-1.55-.43-2.36-.23-.89.22-1.71.62-2.53,1.02-.06.03-.12.06-.2.07.13-.14.25-.28.38-.42.52-.58,1.02-1.18,1.42-1.85.51-.85.64-1.76.39-2.72-.23-.87-.61-1.68-1-2.49-.03-.06-.06-.12-.09-.19,0,0,.02-.01.02-.02.25.22.49.44.74.65.57.49,1.16.97,1.84,1.31.77.39,1.57.43,2.39.22.87-.22,1.67-.6,2.47-.99.07-.04.15-.07.24-.08-.18.2-.36.4-.54.6Zm5.61,45.97c-.48-.03-1.08-.18-1.79-.45-.71-.27-1.26-.56-1.64-.85s-.59-.65-.63-1.05c-.04-.4-.03-.74.04-1.02.06-.27.2-.67.39-1.19.2-.52.36-.9.5-1.15.13-.25.34-.5.62-.76.55-.49,1.55-.46,3,.09,1.43.54,2.17,1.17,2.23,1.9.05.41.05.75-.02,1.02-.06.27-.2.67-.39,1.19-.2.52-.36.9-.5,1.15s-.35.5-.64.77c-.29.26-.68.38-1.16.35Zm7.87,9c-.53.03-1.06.08-1.56.3-.52.23-.85.64-1.11,1.13-.22.41-.38.85-.54,1.28-.02.04-.03.09-.07.13-.03-.52-.03-1.03-.11-1.54-.1-.57-.29-1.08-.75-1.47-.29-.24-.62-.42-.96-.57-.3-.13-.6-.24-.91-.36-.04-.02-.09-.03-.13-.07.52-.03,1.03-.03,1.54-.11.5-.08.97-.24,1.34-.61.31-.31.52-.68.69-1.08.15-.35.29-.7.45-1.1.01.23.02.42.03.61.01.37.05.75.12,1.12.14.8.6,1.34,1.31,1.7.45.23.93.4,1.4.62-.24,0-.48.02-.72.03Zm4.03-20.26c-.84.96-1.88,1.58-3.12,1.87-.69.16-1.39.3-2.09.44-1.11.21-1.98.73-2.6,1.7-.44.69-.69.74-1.45.46-.61-.23-1.22-.46-1.83-.7-.64-.24-1.28-.48-1.92-.73-.52-.2-.66-.4-.6-.94.16-1.3.78-2.36,1.81-3.16,1.04-.81,2.25-1.25,3.55-1.44.7-.1,1.41-.18,2.1-.37,1.43-.41,1.92-1.87,1.04-3.07-.98-1.34-2.83-1.87-4.38-1.25-.69.28-1.32.68-1.97,1.03-.72.39-1.04.32-1.47-.38-.62-.99-1.24-1.99-1.86-2.99-.38-.62-.33-.93.23-1.38,2.61-2.09,5.56-2.69,8.8-1.95,2.79.64,4.84,2.29,6.28,4.73,1.54,2.63,1.33,6.01-.52,8.13Zm6.76-13.79c-.51.04-.98.16-1.38.5-.33.28-.57.64-.77,1.02-.18.33-.34.68-.53,1.06,0-.23.01-.42.02-.61.02-.37,0-.75-.03-1.12-.08-.8-.49-1.38-1.17-1.8-.43-.27-.9-.48-1.35-.73.24,0,.48.02.72.03.53.01,1.06,0,1.58-.17.54-.18.9-.57,1.2-1.03.25-.39.44-.81.64-1.23.02-.04.03-.09.08-.12-.01.52-.05,1.03-.01,1.54.05.58.2,1.1.63,1.52.27.27.58.47.91.65.29.15.58.29.87.43.04.02.09.03.12.08-.52-.01-1.03-.06-1.54,0Z"/>
    </g>
  </g>
</svg>