<?xml version="1.0" encoding="UTF-8"?>
<svg id="katman_2" data-name="katman 2" xmlns="http://www.w3.org/2000/svg" viewBox="0 0 22.68 30">
  <defs>
    <style>
      .cls-1 {
        fill: #361268;
        stroke-width: 0px;
      }
    </style>
  </defs>
  <g id="katman_1" data-name="katman 1">
    <path class="cls-1" d="m0,18.05c-.04-3.4,1.06-6.52,3.22-9.28.42-.53.93-.81,1.62-.66.67.15,1.12.68,1.16,1.37.08,1.2.21,2.38.63,3.52.18.48.4.93.76,1.29.44.44.97.61,1.57.47.61-.14.9-.59,1.05-1.16.26-1.06.11-2.1-.12-3.13-.3-1.29-.64-2.57-.59-3.91.09-2.21.77-4.2,2.1-5.97.38-.5.9-.67,1.5-.55.59.12,1,.49,1.12,1.09.18.87.33,1.75.63,2.59.69,1.89,1.75,3.53,3.27,4.84,1.85,1.6,3.28,3.49,4.09,5.8,2.18,6.16-1.11,13.87-8.64,15.38-2.87.58-5.65.25-8.15-1.36-2.91-1.87-4.53-4.61-5.08-8-.12-.73-.16-1.47-.15-2.32Zm3.72-4.27c-.09.26-.15.41-.19.57-.5,1.82-.69,3.66-.43,5.53.72,5.21,5.03,7.48,9.06,6.95,5.04-.66,8.19-5.48,7.38-10.25-.38-2.25-1.59-4.04-3.25-5.53-1.5-1.35-2.76-2.87-3.71-4.65-.04-.07-.04-.19-.18-.19-.05.92.03,1.83.25,2.72.35,1.48.63,2.96.45,4.49-.18,1.55-.79,2.87-2.17,3.72-1.91,1.17-4.56.66-6.1-1.16-.52-.62-.87-1.32-1.12-2.19Z"/>
  </g>
</svg>