<?xml version="1.0" encoding="UTF-8"?>
<svg id="katman_2" data-name="katman 2" xmlns="http://www.w3.org/2000/svg" viewBox="0 0 30 26.99">
  <defs>
    <style>
      .cls-1 {
        fill: #361268;
        stroke-width: 0px;
      }
    </style>
  </defs>
  <g id="katman_1" data-name="katman 1">
    <path class="cls-1" d="m27.01,13.57c.01-5.25-3.83-9.72-8.97-10.46-3.15-.45-5.8.45-7.68,3.1-3.28,4.62-.35,11.07,5.27,11.75,2.57.31,4.34-1.1,5.02-2.72,1.22-2.91-.91-6.21-4.04-6.24-.89-.01-1.57.59-1.61,1.43-.04.85.58,1.5,1.5,1.58.83.07,1.35.51,1.48,1.25.16.88-.5,1.7-1.4,1.74-2.2.1-4.29-1.69-4.53-3.89-.32-3.01,1.98-5.35,5-5.08,3.55.31,6.26,2.79,6.87,6.29.74,4.21-2.48,8.34-6.74,8.66-5.62.41-10.61-3.83-11.13-9.45C5.53,5.84,9.53.75,15.15.1c4.01-.47,7.56.75,10.5,3.49,3.49,3.25,4.85,7.32,4.19,12.04-.78,5.58-5.42,10.32-10.99,11.16-5.49.83-10.21-.86-14.13-4.75C2.07,19.41.58,16.17.11,12.47c-.08-.65-.12-1.31-.1-1.97.02-.84.65-1.48,1.46-1.5.83-.02,1.51.61,1.52,1.47.04,2.45.58,4.78,1.88,6.86,2.87,4.61,7.06,6.89,12.49,6.62,4.66-.23,8.67-3.94,9.48-8.56.11-.63.15-1.26.18-1.83Z"/>
  </g>
</svg>