<?xml version="1.0" encoding="UTF-8"?>
<svg id="katman_2" data-name="katman 2" xmlns="http://www.w3.org/2000/svg" viewBox="0 0 17.58 30">
  <defs>
    <style>
      .cls-1 {
        fill: #fff;
        stroke-width: 0px;
      }
    </style>
  </defs>
  <g id="katman_1" data-name="katman 1">
    <path class="cls-1" d="m11.66,0c.64.38.73.62.55,1.37-.84,3.33-1.68,6.65-2.51,9.98,0,.03,0,.06-.02.12.11,0,.21.01.31.01,2.18,0,4.35,0,6.53,0,.4,0,.74.09.95.45.21.37.11.7-.11,1.04-3.46,5.49-6.91,10.98-10.37,16.47-.23.36-.51.6-.95.54-.53-.06-.86-.57-.72-1.13.4-1.62.81-3.23,1.22-4.85.45-1.78.89-3.55,1.34-5.33.01-.05.02-.09.03-.17h-.33c-2.18,0-4.35,0-6.53,0-.39,0-.72-.09-.92-.45-.21-.37-.12-.7.1-1.04C3.68,11.55,7.13,6.05,10.58.56c.16-.25.36-.43.61-.56h.47Z"/>
  </g>
</svg>