<?xml version="1.0" encoding="UTF-8"?>
<svg id="katman_2" data-name="katman 2" xmlns="http://www.w3.org/2000/svg" viewBox="0 0 30 30">
  <defs>
    <style>
      .cls-1 {
        fill: #361268;
        stroke-width: 0px;
      }
    </style>
  </defs>
  <g id="katman_1" data-name="katman 1">
    <g>
      <path class="cls-1" d="m30,1.93c-.07.59-.13,1.18-.22,1.76-.41,2.7-1.34,5.22-2.67,7.6-1.23,2.22-2.77,4.2-4.65,5.91-.17.16-.17.33-.18.52-.21,4-1.69,7.46-4.46,10.36-.16.17-.34.3-.58.31-.33.02-.6-.24-.66-.62-.22-1.55-.44-3.09-.67-4.66-.23.1-.37.28-.55.43-.42.37-.71.36-1.11-.04-2.6-2.6-5.19-5.19-7.79-7.79-.4-.4-.41-.69-.03-1.11.15-.16.29-.33.48-.54-.76-.11-1.46-.21-2.16-.31-.86-.12-1.72-.24-2.58-.36-.27-.04-.49-.16-.57-.43-.09-.28,0-.51.22-.71,1.82-1.79,3.95-3.07,6.39-3.84,1.36-.43,2.75-.68,4.17-.71.17,0,.29-.06.41-.18,3.19-3.43,7.06-5.71,11.58-6.91,1.16-.31,2.34-.51,3.55-.58.08,0,.15-.03.23-.05.47,0,.94,0,1.41,0,.21.1.37.26.47.47v1.47Zm-8.59,9.78c1.72,0,3.13-1.41,3.13-3.13,0-1.71-1.4-3.11-3.11-3.12-1.72-.01-3.14,1.4-3.14,3.12,0,1.72,1.41,3.14,3.12,3.14Z"/>
      <path class="cls-1" d="m6.08,20c1.82,0,3.35,1.2,3.79,2.91.43,1.68-.3,3.4-1.82,4.27-.62.35-1.26.65-1.92.92-1.71.71-3.47,1.29-5.24,1.84-.27.08-.5.07-.71-.13-.2-.2-.23-.43-.14-.7.72-2.28,1.46-4.55,2.51-6.7.51-1.05,1.24-1.86,2.38-2.23.39-.13.8-.18,1.15-.19Z"/>
    </g>
  </g>
</svg>