<?xml version="1.0" encoding="UTF-8"?>
<svg id="katman_2" data-name="katman 2" xmlns="http://www.w3.org/2000/svg" viewBox="0 0 18.88 35">
  <defs>
    <style>
      .cls-1 {
        fill: #fff;
        stroke-width: 0px;
      }
    </style>
  </defs>
  <g id="katman_1" data-name="katman 1">
    <path class="cls-1" d="m12.66,27.14c0,2.17,0,4.33,0,6.5,0,.21,0,.43-.02.64-.03.37-.21.61-.59.67-.18.03-.37.04-.55.05-1.71,0-3.42,0-5.13,0-.88,0-1.09-.21-1.09-1.08,0-4.55,0-9.09.01-13.64,0-.45-.14-.54-.55-.53-1.23.03-2.45.01-3.68,0-.83,0-1.05-.21-1.05-1.03,0-1.7,0-3.39,0-5.09,0-.82.22-1.02,1.06-1.02,1.28,0,2.57,0,3.85,0,.28,0,.36-.08.36-.36-.01-1.35-.04-2.71,0-4.06.09-2.49.85-4.7,2.83-6.35C9.51.68,11.16.12,12.95.04c1.69-.07,3.39-.03,5.09-.03.59,0,.83.24.83.84,0,1.67,0,3.34,0,5,0,.64-.23.87-.88.89-1.15.03-2.31.03-3.46.05-1.29.02-1.84.53-1.87,1.8-.03,1.2,0,2.39-.02,3.59,0,.3.13.34.38.34,1.51,0,3.02,0,4.53,0,.93,0,1.14.22,1.14,1.13,0,1.7,0,3.39,0,5.09,0,.76-.2.96-.97.97-1.55,0-3.11.01-4.66,0-.34,0-.43.1-.43.43.01,2.34,0,4.68,0,7.01Z"/>
  </g>
</svg>