<?xml version="1.0" encoding="UTF-8"?>
<svg id="katman_2" data-name="katman 2" xmlns="http://www.w3.org/2000/svg" viewBox="0 0 243.89 65">
  <defs>
    <style>
      .cls-1 {
        fill: #fff;
        stroke-width: 0px;
      }
    </style>
  </defs>
  <g id="katman_1" data-name="katman 1">
    <g>
      <g>
        <g>
          <path class="cls-1" d="m168.38,33.71c6.94-6.3,10.98-10,12.1-11.09,1.13-1.09,1.69-2.34,1.69-3.74s-.49-2.58-1.46-3.52c-.98-.94-2.12-1.41-3.43-1.41h-18.29c-1.31,0-2.29.09-2.93.28-.49.19-.86.44-1.13.76-.26.32-.49.81-.68,1.46-.19.66-.28,1.66-.28,3.01s.32,2.44.96,3.26c.56.71,1.91,1.07,4.05,1.07h7.94c-.15.15-1.05.95-2.7,2.39-1.65,1.44-3.49,3.07-5.52,4.87-2.03,1.8-3.53,3.18-4.5,4.14s-1.46,2.11-1.46,3.46.49,2.51,1.46,3.49c.98.98,2.12,1.46,3.43,1.46h20.32c.86,0,1.51-.03,1.94-.08s.93-.23,1.49-.51c.56-.28.96-.78,1.18-1.49.23-.71.34-1.65.34-2.81s-.11-2.1-.34-2.81c-.23-.71-.67-1.26-1.32-1.63-.66-.38-1.74-.56-3.24-.56h-9.63Z"/>
          <path class="cls-1" d="m197.53,43.99c6.94-6.3,10.98-10,12.1-11.09,1.13-1.09,1.69-2.34,1.69-3.74s-.49-2.58-1.46-3.52c-.98-.94-2.12-1.41-3.43-1.41h-18.29c-1.31,0-2.29.09-2.93.28-.49.19-.86.44-1.13.76s-.49.81-.68,1.46-.28,1.66-.28,3.01.32,2.44.96,3.26c.56.71,1.91,1.07,4.05,1.07h7.94c-.15.15-1.05.95-2.7,2.39-1.65,1.44-3.49,3.07-5.52,4.87-2.03,1.8-3.53,3.18-4.5,4.14-.98.96-1.46,2.11-1.46,3.46s.49,2.51,1.46,3.49c.98.98,2.12,1.46,3.43,1.46h20.32c.86,0,1.51-.03,1.94-.08s.93-.23,1.49-.51c.56-.28.96-.78,1.18-1.49.23-.71.34-1.65.34-2.81s-.11-2.1-.34-2.81c-.23-.71-.67-1.26-1.32-1.63-.66-.38-1.74-.56-3.24-.56h-9.63Z"/>
        </g>
        <g>
          <path class="cls-1" d="m96,19.75c-1.43-1.95-3.67-2.93-6.73-2.93s-5.96,1.44-8.7,4.33-4.11,6.25-4.11,10.08,1.35,7.19,4.05,10.08c2.7,2.89,5.72,4.33,9.06,4.33,2.74,0,4.86-.86,6.36-2.59v11.37c0,.86.03,1.5.08,1.91s.23.89.51,1.44c.28.54.76.93,1.44,1.15.68.23,1.59.34,2.76.34s2.09-.11,2.79-.34c.69-.23,1.18-.6,1.46-1.13.28-.53.45-.99.51-1.41.06-.41.08-1.05.08-1.91V21.61c0-.86-.03-1.5-.08-1.91s-.23-.89-.51-1.44c-.28-.54-.76-.93-1.44-1.15-.68-.23-1.73-.34-3.15-.34-2.7,0-4.17.99-4.39,2.98Zm-5.01,16.32c-1.35,0-2.5-.49-3.46-1.46-.96-.98-1.44-2.08-1.44-3.32s.45-2.35,1.35-3.35c.9-.99,2.07-1.49,3.52-1.49s2.6.52,3.46,1.55,1.29,2.14,1.29,3.32-.45,2.27-1.35,3.26c-.9.99-2.03,1.49-3.38,1.49Z"/>
          <path class="cls-1" d="m121.5,42.94c1.5,0,2.89-.41,4.17-1.24.49-.34.99-.75,1.52-1.24.53-.49.86-.86,1.01-1.13,0,.9.19,1.67.56,2.31.53.9,1.93,1.35,4.22,1.35s3.77-.49,4.33-1.46c.3-.53.48-1,.53-1.44.06-.43.08-1.06.08-1.89v-19.93c0-.86-.03-1.51-.08-1.94-.06-.43-.22-.93-.48-1.49-.53-1.01-1.97-1.52-4.33-1.52s-3.85.49-4.33,1.46c-.3.56-.48,1.06-.53,1.49-.06.43-.08,1.08-.08,1.94v9.96c0,1.46-.46,2.65-1.38,3.55-.92.9-2.12,1.35-3.6,1.35s-2.66-.43-3.55-1.29c-.88-.86-1.32-2.06-1.32-3.6v-9.85c0-1.31-.11-2.27-.34-2.87-.45-1.43-1.99-2.14-4.62-2.14-2.4,0-3.87.51-4.39,1.52-.26.56-.42,1.05-.48,1.46s-.08,1.07-.08,1.97v9.85c0,4.13,1.25,7.63,3.74,10.5,2.5,2.87,5.64,4.31,9.43,4.31Z"/>
          <path class="cls-1" d="m140.97,24.54v19.76c0,.9.03,1.56.08,1.97s.22.9.48,1.46c.53,1.01,1.97,1.52,4.33,1.52s3.85-.49,4.33-1.46c.3-.56.48-1.06.53-1.49.06-.43.08-1.08.08-1.94v-19.7c0-.71-.02-1.26-.06-1.63-.04-1.09-.38-1.9-1.01-2.42-.75-.64-2.03-.96-3.83-.96-2.4,0-3.87.49-4.39,1.46-.26.56-.42,1.06-.48,1.49-.06.43-.08,1.08-.08,1.94Zm7.77-9.29c.71-.23,1.21-.61,1.49-1.15s.45-1.03.51-1.46c.06-.43.08-1.08.08-1.94s-.03-1.51-.08-1.94c-.06-.43-.23-.93-.53-1.49-.49-1.01-1.91-1.52-4.28-1.52s-3.87.51-4.39,1.52c-.26.53-.42,1-.48,1.44-.06.43-.08,1.08-.08,1.94s.03,1.51.08,1.94c.06.43.23.93.51,1.49s.78.96,1.49,1.18c.71.23,1.66.34,2.84.34s2.13-.11,2.84-.34Z"/>
          <path class="cls-1" d="m217.66,21.66c-3.15,2.93-4.73,6.64-4.73,11.15,0,3,.8,5.69,2.39,8.08,1.59,2.38,3.56,4.18,5.88,5.4,2.33,1.22,4.73,1.83,7.21,1.83s4.87-.57,7.18-1.72c2.31-1.14,4.27-2.93,5.88-5.35,1.61-2.42,2.42-5.19,2.42-8.3,0-4.5-1.56-8.21-4.67-11.12-3.11-2.91-6.7-4.36-10.75-4.36s-7.66,1.46-10.81,4.39Zm10.7,16.55c-1.24,0-2.46-.46-3.66-1.38-1.2-.92-1.8-2.29-1.8-4.11s.58-3.2,1.75-4.14c1.16-.94,2.42-1.41,3.77-1.41s2.61.45,3.77,1.35c1.16.9,1.75,2.27,1.75,4.11s-.62,3.23-1.86,4.17c-1.24.94-2.48,1.41-3.72,1.41Z"/>
        </g>
      </g>
      <path class="cls-1" d="m32.5,0C14.55,0,0,14.55,0,32.5s14.55,32.5,32.5,32.5,32.5-14.55,32.5-32.5S50.45,0,32.5,0ZM14.38,39.99c-.16-.11-.33-.21-.51-.29-.38-.18-.75-.15-1.13.04-.24.12-.46.27-.69.41.07-.11.14-.21.21-.32.15-.24.29-.48.35-.75.06-.29-.01-.56-.14-.82-.11-.22-.25-.42-.38-.62-.01-.02-.03-.04-.03-.07.23.15.45.3.69.42.27.13.55.21.85.13.19-.05.37-.13.54-.24.15-.09.29-.18.43-.28.02-.01.04-.03.07-.03-.15.23-.3.45-.42.69-.12.24-.19.49-.15.76.04.23.13.43.25.62.1.17.21.34.33.52-.1-.07-.19-.12-.27-.18Zm13.57,14.89c-.38.2-.75.41-1.09.67-.43.34-.67.78-.73,1.32-.05.49-.01.99.03,1.48,0,.04,0,.08,0,.11,0,0-.01,0-.02,0-.08-.16-.17-.32-.25-.48-.2-.36-.41-.72-.69-1.03-.32-.35-.72-.53-1.19-.58-.49-.05-.97-.01-1.46.03-.05,0-.09,0-.14,0,.13-.07.26-.14.39-.21.34-.18.68-.38.98-.62.41-.33.65-.76.71-1.29.06-.49.02-.99-.03-1.48,0-.04,0-.09,0-.14.09.17.18.35.28.52.19.35.4.69.67.99.32.34.71.52,1.17.58.5.06,1,.01,1.5-.03.04,0,.07,0,.12,0-.09.05-.19.1-.28.14Zm4.05-7.76c-.16.5-.53.89-1.11,1.18-.57.29-1.36.51-2.36.67-1,.16-1.82.19-2.45.1-.63-.09-1.11-.36-1.42-.8-.31-.44-.52-.84-.63-1.19-.11-.36-.22-.9-.33-1.63-.12-.73-.18-1.28-.19-1.65-.01-.37.06-.8.21-1.28.31-.93,1.48-1.55,3.51-1.88,2-.32,3.27-.08,3.82.71.33.44.55.83.65,1.19.11.36.22.9.33,1.63s.18,1.28.19,1.65c.01.37-.07.81-.23,1.31Zm5.16-19.66c-.33,1.65-1.12,3.07-2.36,4.22-.69.65-1.4,1.27-2.12,1.88-1.14.97-1.8,2.15-1.87,3.68-.05,1.09-.3,1.31-1.37,1.49-.86.14-1.72.27-2.57.41-.9.14-1.79.29-2.69.43-.73.11-1.03-.02-1.31-.69-.67-1.6-.66-3.23,0-4.84.66-1.63,1.77-2.93,3.14-4.01.74-.59,1.51-1.14,2.18-1.82,1.37-1.41.98-3.42-.82-4.22-2.02-.89-4.5-.28-5.87,1.45-.62.78-1.08,1.65-1.59,2.49-.57.93-.98,1.05-1.95.54-1.38-.73-2.75-1.47-4.12-2.21-.84-.46-1-.85-.65-1.74,1.63-4.13,4.63-6.78,8.85-8.06,3.64-1.1,7.09-.57,10.37,1.3,3.52,2.01,5.51,6.04,4.78,9.7Zm.28-19.91c-.35.41-.7.82-.97,1.29-.38.64-.47,1.31-.29,2.03.17.67.46,1.29.76,1.91.03.06.05.11.06.18-.21-.18-.41-.37-.62-.55-.42-.36-.85-.7-1.36-.95-.58-.29-1.18-.33-1.81-.17-.68.17-1.31.47-1.94.78-.05.02-.09.04-.16.05.1-.11.19-.21.29-.32.39-.45.78-.9,1.09-1.41.39-.65.49-1.34.3-2.08-.18-.67-.47-1.29-.77-1.91-.02-.05-.05-.09-.07-.14,0,0,.01,0,.02-.01.19.17.37.33.56.5.44.38.89.74,1.41,1,.59.3,1.2.33,1.83.17.66-.17,1.28-.46,1.89-.75.06-.03.11-.05.19-.06-.14.15-.28.31-.41.46Zm4.29,35.16c-.37-.02-.82-.13-1.37-.34-.55-.21-.96-.42-1.25-.65s-.45-.5-.48-.81c-.03-.31-.02-.57.03-.78.05-.21.15-.51.3-.91.15-.4.28-.69.38-.88.1-.19.26-.38.47-.58.42-.38,1.18-.35,2.29.07,1.09.41,1.66.9,1.71,1.45.04.31.04.57-.01.78-.05.21-.15.51-.3.91-.15.4-.28.69-.38.88s-.26.38-.49.59c-.23.2-.52.29-.89.27Zm6.01,6.89c-.41.02-.81.06-1.19.23-.4.17-.65.49-.85.86-.17.31-.29.65-.41.98-.01.03-.02.07-.06.1-.02-.4-.02-.79-.09-1.18-.07-.44-.22-.83-.57-1.12-.22-.19-.47-.32-.74-.44-.23-.1-.46-.19-.69-.28-.03-.01-.07-.02-.1-.06.4-.02.79-.02,1.18-.09.38-.06.74-.18,1.02-.47.24-.23.4-.52.53-.82.12-.27.22-.54.34-.84,0,.18.02.32.02.47,0,.29.04.57.09.85.11.61.46,1.02,1,1.3.35.18.71.31,1.07.47-.18,0-.37.01-.55.02Zm3.08-15.49c-.64.73-1.44,1.21-2.38,1.43-.53.12-1.06.23-1.6.33-.85.16-1.52.56-1.99,1.3-.34.53-.53.57-1.11.35-.47-.18-.93-.35-1.4-.53-.49-.19-.98-.37-1.47-.56-.4-.15-.51-.3-.46-.72.12-.99.6-1.8,1.38-2.42.8-.62,1.72-.96,2.72-1.1.54-.08,1.08-.13,1.61-.28,1.09-.31,1.47-1.43.8-2.34-.75-1.02-2.17-1.43-3.35-.96-.53.21-1.01.52-1.51.79-.55.3-.79.24-1.13-.29-.48-.76-.95-1.52-1.42-2.29-.29-.47-.26-.71.17-1.05,2-1.6,4.25-2.06,6.73-1.49,2.13.49,3.7,1.75,4.8,3.62,1.18,2.01,1.02,4.6-.4,6.21Zm5.17-10.55c-.39.03-.75.12-1.06.38-.26.21-.44.49-.59.78-.14.26-.26.52-.41.81,0-.18,0-.32.02-.47.01-.29,0-.57-.02-.86-.06-.62-.38-1.06-.89-1.38-.33-.21-.68-.36-1.03-.56.18,0,.37.02.55.02.41,0,.81,0,1.21-.13.41-.14.69-.44.91-.79.19-.3.34-.62.49-.94.02-.03.02-.07.06-.09-.01.4-.04.79,0,1.18.04.44.16.84.48,1.17.21.2.45.36.7.49.22.12.45.22.67.33.03.02.07.03.09.06-.4-.01-.79-.04-1.18,0Z"/>
    </g>
  </g>
</svg>