<?xml version="1.0" encoding="UTF-8"?>
<svg id="katman_2" data-name="katman 2" xmlns="http://www.w3.org/2000/svg" viewBox="0 0 40 38.34">
  <defs>
    <style>
      .cls-1 {
        fill: #fff;
        stroke-width: 0px;
      }
    </style>
  </defs>
  <g id="katman_1" data-name="katman 1">
    <path class="cls-1" d="m0,18.39c.1-.71.18-1.42.3-2.12.96-5.21,3.62-9.37,7.9-12.47C12.09.98,16.47-.24,21.25.04c9.35.55,16.92,7.45,18.46,16.27,1.49,8.57-2.97,17.21-10.83,20.92-.77.36-1.54.69-2.35.96-.09.03-.17.06-.26.09-.82.21-1.37-.21-1.37-1.05,0-1.72.01-3.44.01-5.16,0-.27,0-.55-.03-.82-.12-1.08-.44-2.08-1.28-2.91,1.01-.15,1.97-.29,2.9-.55,3.6-1.01,5.72-3.54,6.08-7.27.1-1.05.17-2.1,0-3.15-.21-1.42-.8-2.66-1.72-3.74-.15-.17-.2-.31-.13-.55.49-1.58.34-3.13-.2-4.67-.12-.33-.37-.28-.6-.28-.78.02-1.51.25-2.22.55-.87.36-1.69.81-2.47,1.33-.2.14-.39.16-.62.1-3.12-.78-6.23-.78-9.35,0-.24.06-.41.02-.61-.11-1.23-.79-2.51-1.49-3.96-1.79-1.16-.24-1.29-.16-1.58.97-.34,1.34-.38,2.68.09,4,.05.14.04.23-.06.35-1.72,1.91-2.11,4.19-1.85,6.66.17,1.56.54,3.05,1.41,4.37,1.16,1.77,2.88,2.73,4.87,3.29.87.24,1.77.38,2.73.5-.7.72-1.06,1.54-1.21,2.45-.02.15-.11.21-.25.27-2.12.83-4.25.52-5.6-1.69-.66-1.09-1.59-1.85-2.9-2.04-.25-.04-.5,0-.73.05-.38.09-.45.33-.18.62.15.16.32.32.5.43,1.04.62,1.76,1.53,2.17,2.64.93,2.51,3.22,3.35,5.55,3.14.35-.03.7-.06,1.04-.15.28-.07.3.05.3.27,0,.94.02,1.88.02,2.81,0,.96-.6,1.41-1.51,1.1-2.69-.9-5.09-2.31-7.17-4.23-3.28-3.03-5.32-6.76-6.09-11.16-.12-.68-.18-1.36-.26-2.04,0-.81,0-1.61,0-2.42Z"/>
  </g>
</svg>