<?xml version="1.0" encoding="UTF-8"?>
<svg id="katman_2" data-name="katman 2" xmlns="http://www.w3.org/2000/svg" viewBox="0 0 34.94 35">
  <defs>
    <style>
      .cls-1 {
        fill: #fff;
        stroke-width: 0px;
      }
    </style>
  </defs>
  <g id="katman_1" data-name="katman 1">
    <g>
      <path class="cls-1" d="m12.25,0h10.46c.2.08.4.05.61.05,1.32.04,2.64.07,3.94.36,3.39.75,5.77,2.68,6.96,5.98.58,1.6.71,3.26.72,4.94.01,4.01.01,8.02,0,12.03,0,1.28-.07,2.55-.33,3.8-.71,3.34-2.59,5.71-5.8,6.97-1.55.6-3.18.73-4.83.79-3.69.12-7.38.08-11.07.05-1.82-.02-3.65-.02-5.43-.45-2.9-.7-5.05-2.34-6.33-5.06-.79-1.67-.99-3.46-1.05-5.28C-.04,20.39,0,16.61.03,12.83c.01-1.59.04-3.19.33-4.76.45-2.44,1.56-4.48,3.57-5.98C5.64.8,7.63.3,9.73.13c.84-.07,1.68-.03,2.52-.13Zm5.27,31.84c.92,0,1.85,0,2.77,0,1.98-.03,3.97.04,5.93-.27,2.57-.41,4.35-1.8,5.13-4.34.36-1.17.4-2.38.44-3.58.1-3.1.07-6.19.06-9.29-.01-1.84,0-3.69-.26-5.52-.41-2.8-2.14-4.66-4.89-5.29-1.22-.28-2.46-.29-3.7-.32-3.05-.06-6.1-.06-9.16-.02-1.75.02-3.51-.01-5.25.29-2.65.47-4.43,2.16-5.04,4.78-.27,1.15-.29,2.32-.32,3.5-.08,2.81-.07,5.63-.05,8.44.02,1.97-.03,3.94.25,5.9.26,1.81,1.02,3.35,2.57,4.41,1.19.82,2.56,1.1,3.97,1.19,2.51.17,5.03.13,7.55.13Z"/>
      <path class="cls-1" d="m8.51,17.51c-.02-4.95,4.03-8.99,8.99-8.99,4.96,0,8.95,3.98,8.98,8.96.03,4.94-4,9-8.97,9.02-4.95.02-8.99-4.01-9.01-8.98Zm8.97,5.81c3.23,0,5.83-2.57,5.84-5.8.01-3.23-2.56-5.83-5.79-5.85-3.24-.02-5.85,2.57-5.86,5.81,0,3.22,2.58,5.82,5.8,5.83Z"/>
      <path class="cls-1" d="m26.89,6.06c1.17.02,2.07.97,2.04,2.15-.03,1.15-.97,2.05-2.14,2.03-1.16-.02-2.07-.99-2.05-2.16.03-1.14.98-2.05,2.14-2.02Z"/>
    </g>
  </g>
</svg>