<?xml version="1.0" encoding="UTF-8"?>
<svg id="katman_2" data-name="katman 2" xmlns="http://www.w3.org/2000/svg" viewBox="0 0 35 35">
  <defs>
    <style>
      .cls-1 {
        fill: #fff;
        stroke-width: 0px;
      }
    </style>
  </defs>
  <g id="katman_1" data-name="katman 1">
    <path class="cls-1" d="m3.01,0c9.66,0,19.32,0,28.98,0,.05.02.1.05.15.06.83.17,1.51.59,2.06,1.24.42.5.63,1.09.8,1.71v28.98s-.05.08-.06.12c-.37,1.76-1.76,2.89-3.55,2.89-9.26,0-18.52,0-27.78,0-.32,0-.64-.03-.95-.11C1.05,34.48,0,33.08,0,31.36,0,22.12,0,12.88,0,3.64c0-.1,0-.21,0-.31.06-.98.47-1.79,1.19-2.45.52-.47,1.15-.71,1.81-.89Zm16.25,15.95c0-.54-.01-1.09,0-1.63,0-.26-.08-.32-.33-.32-1.54.01-3.08.01-4.61,0-.26,0-.32.08-.32.33,0,5.03,0,10.07,0,15.1,0,.26.08.32.33.32,1.53-.01,3.05-.01,4.58,0,.29,0,.36-.08.36-.36-.01-2.86,0-5.72,0-8.58,0-.22,0-.43.03-.65.16-1.72,2.2-2.84,3.72-2.02,1.02.54,1.5,1.41,1.5,2.56,0,2.88,0,5.76-.01,8.65,0,.34.1.41.42.41,1.49-.02,2.98-.02,4.48,0,.32,0,.37-.09.37-.38-.01-3.14,0-6.29,0-9.43,0-2.16-.87-3.9-2.62-5.14-1.82-1.28-3.78-1.57-5.82-.51-.79.41-1.45.97-2.05,1.66Zm-8.75,5.92c0-2.51,0-5.01,0-7.52,0-.29-.08-.36-.36-.36-1.53.01-3.05.01-4.58,0-.26,0-.32.08-.32.33,0,5.03,0,10.07,0,15.1,0,.26.07.32.32.32,1.53-.01,3.05-.01,4.58,0,.28,0,.36-.07.36-.36-.01-2.51,0-5.01,0-7.52Zm.51-14c0-1.74-1.42-3.16-3.15-3.15-1.73,0-3.16,1.45-3.14,3.16.02,1.73,1.41,3.12,3.14,3.13,1.74.01,3.15-1.39,3.15-3.14Z"/>
  </g>
</svg>