<?xml version="1.0" encoding="UTF-8"?>
<svg id="katman_2" data-name="katman 2" xmlns="http://www.w3.org/2000/svg" viewBox="0 0 31.29 32">
  <defs>
    <style>
      .cls-1 {
        fill: #fff;
        stroke-width: 0px;
      }
    </style>
  </defs>
  <g id="katman_1" data-name="katman 1">
    <path class="cls-1" d="m30.3,0c-1.7,1.97-3.4,3.95-5.09,5.92-2.11,2.46-4.23,4.91-6.35,7.36-.17.2-.19.32-.03.55,4.09,5.92,8.17,11.85,12.25,17.78.08.11.15.22.22.33-.07.09-.16.05-.24.05-2.93,0-5.86,0-8.79,0-.21,0-.31-.07-.42-.23-2.72-3.96-5.44-7.91-8.16-11.86-.07-.1-.14-.2-.23-.32-.8.92-1.57,1.82-2.35,2.72-2.73,3.16-5.46,6.33-8.18,9.5-.12.14-.23.2-.42.2-.81-.01-1.63,0-2.46,0,.03-.14.12-.21.19-.29,3.91-4.54,7.82-9.08,11.74-13.61.21-.24.21-.38.03-.65C8.06,11.75,4.13,6.05.21.34.13.23.07.12,0,0,3.11,0,6.22,0,9.33,0c.02.04.03.08.06.11,2.63,3.82,5.26,7.63,7.88,11.45.18.26.24.09.35-.03C20.92,7.69,24.24,3.84,27.55,0c.92,0,1.84,0,2.75,0Zm-2.8,29.95c-.08-.11-.14-.21-.2-.3-1.69-2.41-3.38-4.83-5.07-7.24-4.67-6.67-9.34-13.34-14.01-20.01-.18-.25-.36-.34-.66-.34-1.16.02-2.32,0-3.47,0-.1,0-.2-.04-.31.05.05.08.1.16.15.23,6.4,9.14,12.81,18.28,19.21,27.43.11.16.23.23.43.22,1.21,0,2.42,0,3.63,0,.09,0,.19.03.3-.05Z"/>
  </g>
</svg>