<?xml version="1.0" encoding="UTF-8"?>
<svg id="katman_2" data-name="katman 2" xmlns="http://www.w3.org/2000/svg" viewBox="0 0 35 24.77">
  <defs>
    <style>
      .cls-1 {
        fill: #fff;
        stroke-width: 0px;
      }
    </style>
  </defs>
  <g id="katman_1" data-name="katman 1">
    <path class="cls-1" d="m35,10.2v4.37c-.02.11-.05.22-.05.33-.06,1.9-.22,3.8-.42,5.69-.17,1.63-1.65,3.18-3.26,3.34-1.44.15-2.87.32-4.31.44-3.23.27-6.46.4-9.69.4-4.47,0-8.92-.31-13.36-.81-1.68-.19-3.21-1.62-3.41-3.28C.23,18.52.08,16.35.02,14.18c-.09-3.36.08-6.72.46-10.06.18-1.62,1.69-3.11,3.28-3.29C6.6.52,9.45.25,12.3.12c3.91-.18,7.81-.15,11.71.06,2.39.13,4.77.38,7.14.64,1.65.18,3.17,1.64,3.36,3.29.21,1.87.37,3.74.42,5.62,0,.16,0,.32.06.47Zm-20.4-3.57v11.52c.14,0,.22-.09.31-.15,2.71-1.8,5.41-3.61,8.13-5.41.26-.17.26-.24,0-.42-2.71-1.8-5.42-3.6-8.13-5.41-.09-.06-.17-.16-.31-.15Z"/>
  </g>
</svg>