<?xml version="1.0" encoding="UTF-8"?>
<svg id="katman_2" data-name="katman 2" xmlns="http://www.w3.org/2000/svg" viewBox="0 0 14.69 25">
  <defs>
    <style>
      .cls-1 {
        fill: #fff;
        stroke-width: 0px;
      }
    </style>
  </defs>
  <g id="katman_1" data-name="katman 1">
    <path class="cls-1" d="m12.76,25c.73-.25,1.18-.85,1.65-1.39.39-.44.35-1.16-.02-1.63-.09-.11-.18-.21-.28-.3-2.99-2.99-5.98-5.98-8.98-8.97-.16-.16-.18-.24,0-.41,3.02-3.01,6.03-6.02,9.05-9.04.54-.54.68-1.18.31-1.74-.34-.52-.8-.97-1.32-1.32-.49-.32-1.09-.24-1.54.13-.07.06-.14.12-.2.18C7.78,4.15,4.15,7.78.51,11.42c-.54.54-.66,1.18-.32,1.77.08.15.2.27.32.39,3.63,3.64,7.27,7.27,10.9,10.91.23.24.51.39.81.51h.54Z"/>
  </g>
</svg>