<?xml version="1.0" encoding="UTF-8"?>
<svg id="katman_2" data-name="katman 2" xmlns="http://www.w3.org/2000/svg" viewBox="0 0 14.69 25">
  <defs>
    <style>
      .cls-1 {
        fill: #fff;
        stroke-width: 0px;
      }
    </style>
  </defs>
  <g id="katman_1" data-name="katman 1">
    <path class="cls-1" d="m1.93,25c-.73-.25-1.18-.85-1.65-1.39-.39-.44-.35-1.16.02-1.63.09-.11.18-.21.28-.3,2.99-2.99,5.98-5.98,8.98-8.97.16-.16.18-.24,0-.41C6.54,9.29,3.53,6.27.51,3.26-.02,2.72-.16,2.08.21,1.52.55.99,1,.55,1.53.2c.49-.32,1.09-.24,1.54.13.07.06.14.12.2.18,3.64,3.63,7.27,7.27,10.91,10.9.54.54.66,1.18.32,1.77-.08.15-.2.27-.32.39-3.63,3.64-7.27,7.27-10.9,10.91-.23.24-.51.39-.81.51h-.54Z"/>
  </g>
</svg>